<svg xmlns="http://www.w3.org/2000/svg" version="1.1" xmlns:xlink="http://www.w3.org/1999/xlink" xmlns:svgjs="http://svgjs.com/svgjs" width="512" height="512" x="0" y="0" viewBox="0 0 512 512" style="enable-background:new 0 0 512 512" xml:space="preserve" class=""><g><g xmlns="http://www.w3.org/2000/svg"><g><path d="m503.901 263.941c-.33-1.501-.846-2.95-1.44-4.368-1.558-3.716-5.501-12.554-11.603-22.458-17.044-27.66-52.929-36.903-81.388-21.228l-81.17 44.706-14.867 53.836 51.271 12.26c7.777 9.424 21.39 12.298 32.484 6.188 11.094-6.11 15.941-19.151 12.133-30.761 7.777 9.424 21.39 12.298 32.484 6.188 8.254-4.546 13.051-12.93 13.396-21.705.07-1.774 2.452-2.31 3.309-.755.06.109.131.214.211.309 7.796 9.309 21.326 12.122 32.363 6.043 10.301-5.674 15.216-17.324 12.817-28.255z" fill="#6a647f" data-original="#6a647f" class=""></path><path d="m8.099 263.941c.33-1.501.846-2.95 1.44-4.368 1.558-3.716 5.501-12.554 11.603-22.458 17.044-27.66 52.929-36.903 81.388-21.228l81.17 44.706 14.867 53.836-51.271 12.26c-7.777 9.424-21.39 12.298-32.484 6.188-11.094-6.11-15.941-19.151-12.133-30.761-7.777 9.424-21.39 12.298-32.484 6.188-8.254-4.546-13.051-12.93-13.396-21.705-.07-1.774-2.452-2.31-3.309-.755-.06.109-.131.214-.211.309-7.796 9.309-21.326 12.122-32.363 6.043-10.301-5.674-15.216-17.324-12.817-28.255z" fill="#6a647f" data-original="#6a647f" class=""></path><g><path d="m405.329 465.812c-14.661 7.585-32.69 1.849-40.275-12.812l-15.85-30.631 53.078-27.463 15.85 30.631c7.585 14.66 1.858 32.689-12.803 40.275z" fill="#ff748f" data-original="#ff748f" class=""></path></g><g><path d="m106.671 465.812c14.661 7.585 32.69 1.849 40.275-12.812l15.85-30.631-53.078-27.463-15.85 30.631c-7.585 14.66-1.858 32.689 12.803 40.275z" fill="#ff748f" data-original="#ff748f" class=""></path></g><path d="m419.846 383.398c-34.791-73.231-92.929-89.362-92.929-89.362l.525 119.787 39.711 21.247 42.797-22.145c10.729-5.552 15.081-18.614 9.896-29.527z" fill="#fbe5c8" data-original="#fbe5c8"></path><path d="m82.823 311.507c-2.47-10.056-3.789-20.564-3.789-31.382 0-24.397 6.67-47.233 18.275-66.798-27.495-11.929-60.149-2.205-76.166 23.788-6.103 9.904-10.046 18.743-11.603 22.458-.594 1.418-1.11 2.866-1.44 4.368-2.4 10.931 2.516 22.581 12.817 28.255 11.037 6.079 24.567 3.266 32.363-6.043.08-.096.151-.2.211-.31.856-1.555 3.239-1.019 3.309.755.346 8.776 5.142 17.159 13.396 21.706 4.011 2.209 8.351 3.228 12.627 3.203z" fill="#5c586f" data-original="#5c586f"></path><path d="m92.154 383.398c34.791-73.231 92.929-89.362 92.929-89.362l-.525 119.787-39.711 21.247-42.797-22.145c-10.729-5.552-15.081-18.614-9.896-29.527z" fill="#fbe5c8" data-original="#fbe5c8"></path><path d="m222.43 294.036h67.139l75.744 119.787c1.689 16.47 2.958 35.169 3.608 56.356.58 18.519-14.251 33.859-32.78 33.859h-160.282c-18.529 0-33.36-15.341-32.78-33.859.65-21.187 1.919-39.886 3.608-56.356z" fill="#c6ade3" data-original="#c6ade3"></path><path d="m84.59 180.996c0-94.516 76.894-171.41 171.41-171.41s171.41 76.894 171.41 171.41z" fill="#fbe5c8" data-original="#fbe5c8"></path><path d="m442.692 148.519c-1.057-9.425-10.193-15.759-19.393-13.455-11.294 2.829-25.944 8.456-36.476 19.564l-7.941 78.455c0 .001 74.71 12.665 63.81-84.564z" fill="#fd5f7e" data-original="#fd5f7e"></path><path d="m184.934 328.152.149-34.116s-12.989 3.608-30.359 15.14c9.306 7.368 19.428 13.748 30.21 18.976z" fill="#fbdab2" data-original="#fbdab2"></path><path d="m326.917 294.036.149 34.116c10.781-5.228 20.904-11.607 30.21-18.976-17.37-11.532-30.359-15.14-30.359-15.14z" fill="#fbdab2" data-original="#fbdab2"></path><path d="m197.433 333.57c18.192 7.007 37.937 10.859 58.568 10.859s40.376-3.853 58.567-10.859l-24.998-39.534h-67.14z" fill="#bc9bdd" data-original="#bc9bdd"></path><path d="m222.43 294.036v119.787h-75.744c10.673-103.917 38.397-119.787 38.397-119.787z" fill="#80dfb5" data-original="#80dfb5"></path><path d="m365.313 413.823h-75.743v-119.787h37.347s27.723 15.871 38.396 119.787z" fill="#80dfb5" data-original="#80dfb5"></path><path d="m168.126 318.74c16.355 10.47 34.689 18.104 54.304 22.216v-46.92h-37.347s-7.94 4.553-16.957 24.704z" fill="#60d9a7" data-original="#60d9a7" class=""></path><path d="m289.57 340.956c19.615-4.111 37.95-11.746 54.304-22.216-9.017-20.151-16.957-24.704-16.957-24.704h-37.347z" fill="#60d9a7" data-original="#60d9a7" class=""></path><circle cx="256" cy="180.996" fill="#ff748f" r="133.433" data-original="#ff748f" class=""></circle><path d="m211.314 55.24c-43.667 15.518-76.865 53.127-86.139 99.387-10.532-11.106-25.18-16.733-36.474-19.562-9.2-2.304-18.336 4.029-19.393 13.455-10.9 97.229 63.81 84.564 63.81 84.564l-.006-.057c10.728 25.299 29.027 46.61 52.071 61.069-17.801-25.508-28.249-56.528-28.249-89.992 0-50.419 20.339-108.746 54.38-148.864z" fill="#fd5f7e" data-original="#fd5f7e"></path><g fill="#ff9db0"><ellipse cx="176.492" cy="205.09" rx="29.337" ry="23.363" fill="#ff9db0" data-original="#ff9db0"></ellipse><ellipse cx="335.508" cy="205.09" rx="29.337" ry="23.363" fill="#ff9db0" data-original="#ff9db0"></ellipse></g><path d="m302.51 217.357c-14.427-9.996-33.336-8.633-46.149 2.151h-.721c-12.813-10.784-31.722-12.147-46.149-2.151-10.311 7.144-15.994 18.47-16.355 30.114-.29 9.362 5.498 17.716 14.365 20.733 11.028 3.753 23.629 2.411 33.94-4.734.072-.05.143-.1.214-.15 8.648-6.079 20.041-6.079 28.689 0 .071.05.143.1.214.15 10.555 7.313 23.509 8.547 34.719 4.459 8.223-2.998 13.685-10.881 13.603-19.633-.11-11.931-5.816-23.626-16.37-30.939z" fill="#fbe5c8" data-original="#fbe5c8"></path><path d="m328.895 132.268h-19.936c-9.483 0-17.171 7.688-17.171 17.171 0 9.483 7.688 17.171 17.171 17.171h19.936c9.483 0 17.171-7.688 17.171-17.171 0-9.483-7.688-17.171-17.171-17.171z" fill="#fbe5c8" data-original="#fbe5c8"></path><path d="m183.105 132.268h19.936c9.483 0 17.171 7.688 17.171 17.171 0 9.483-7.688 17.171-17.171 17.171h-19.936c-9.483 0-17.171-7.688-17.171-17.171 0-9.483 7.688-17.171 17.171-17.171z" fill="#fbe5c8" data-original="#fbe5c8"></path><circle cx="256" cy="198.985" fill="#ff9db0" r="30.829" data-original="#ff9db0"></circle><path d="m292.471 7.962h-72.942c-14.326 0-25.94 11.614-25.94 25.94v11.333c0 14.326 11.614 25.94 25.94 25.94h72.942c14.326 0 25.94-11.614 25.94-25.94v-11.334c0-14.326-11.614-25.939-25.94-25.939z" fill="#6a647f" data-original="#6a647f" class=""></path><circle cx="305.21" cy="426.465" fill="#ffefe0" r="22.991" data-original="#ffefe0"></circle><circle cx="305.21" cy="356.453" fill="#ffefe0" r="22.991" data-original="#ffefe0"></circle><circle cx="206.79" cy="426.465" fill="#ffefe0" r="22.991" data-original="#ffefe0"></circle><circle cx="206.79" cy="356.453" fill="#ffefe0" r="22.991" data-original="#ffefe0"></circle><path d="m236.779 24.375c0-5.708.851-11.215 2.417-16.413h-19.666c-14.326 0-25.94 11.613-25.94 25.939v11.333c0 14.326 11.614 25.939 25.94 25.939h41.844c-14.855-10.252-24.595-27.384-24.595-46.798z" fill="#5c586f" data-original="#5c586f"></path><g fill="#fbdab2"><path d="m197.712 346.499c0-4.384 1.046-8.522 2.892-12.188-9.692 2.702-16.805 11.589-16.805 22.142 0 12.697 10.293 22.991 22.991 22.991 5.929 0 11.334-2.246 15.411-5.932-13.745-1.334-24.489-12.917-24.489-27.013z" fill="#fbdab2" data-original="#fbdab2"></path><path d="m296.132 346.499c0-4.384 1.046-8.522 2.892-12.188-9.692 2.702-16.805 11.589-16.805 22.142 0 12.697 10.293 22.991 22.991 22.991 5.929 0 11.334-2.246 15.411-5.932-13.745-1.334-24.489-12.917-24.489-27.013z" fill="#fbdab2" data-original="#fbdab2"></path><path d="m296.132 416.512c0-4.384 1.046-8.522 2.892-12.188-9.692 2.702-16.805 11.589-16.805 22.142 0 12.697 10.293 22.991 22.991 22.991 5.929 0 11.334-2.246 15.411-5.932-13.745-1.335-24.489-12.918-24.489-27.013z" fill="#fbdab2" data-original="#fbdab2"></path><path d="m197.712 416.512c0-4.384 1.046-8.522 2.892-12.188-9.692 2.702-16.805 11.589-16.805 22.142 0 12.697 10.293 22.991 22.991 22.991 5.929 0 11.334-2.246 15.411-5.932-13.745-1.335-24.489-12.918-24.489-27.013z" fill="#fbdab2" data-original="#fbdab2"></path></g></g><g><path d="m308.961 174.107h1.951v8.491c0 4.142 3.358 7.5 7.5 7.5s7.5-3.358 7.5-7.5v-8.491h2.985c13.604 0 24.672-11.068 24.672-24.672s-11.068-24.672-24.672-24.672h-19.937c-13.604 0-24.672 11.068-24.672 24.672s11.069 24.672 24.673 24.672zm0-34.343h19.937c5.333 0 9.671 4.339 9.671 9.671 0 5.333-4.339 9.671-9.671 9.671h-19.937c-5.333 0-9.671-4.339-9.671-9.671s4.338-9.671 9.671-9.671z" fill="#000000" data-original="#000000" class=""></path><path d="m186.087 182.598c0 4.142 3.358 7.5 7.5 7.5s7.5-3.358 7.5-7.5v-8.491h1.952c13.604 0 24.672-11.068 24.672-24.672s-11.068-24.672-24.672-24.672h-19.937c-13.604 0-24.672 11.068-24.672 24.672s11.068 24.672 24.672 24.672h2.984v8.491zm-12.656-33.162c0-5.333 4.339-9.671 9.671-9.671h19.937c5.333 0 9.671 4.339 9.671 9.671 0 5.333-4.339 9.671-9.671 9.671h-19.937c-5.332 0-9.671-4.339-9.671-9.671z" fill="#000000" data-original="#000000" class=""></path><path d="m511.235 262.335c-1.825-8.326-11.495-25.116-13.984-29.156-11.279-18.304-30.225-29.936-51.206-32.052 5.105-14.325 6.49-32.19 4.107-53.448-1.34-11.963-11.601-20.847-23.556-20.58-16.501-52.149-56.213-94.151-107.603-113.543-6.118-7.96-15.728-13.104-26.52-13.104h-72.944c-10.786 0-20.391 5.138-26.509 13.09-19.284 7.274-37.058 17.759-52.854 31.21-3.153 2.686-3.533 7.419-.848 10.573 2.686 3.154 7.418 3.534 10.573.848 11.078-9.433 23.215-17.28 36.217-23.43-.013.383-.02.766-.02 1.149.197 10.089-.85 15.465 2.259 23.445-33.785 18.58-57.388 49.235-67.538 83.735-6.306-4.41-13.594-7.921-20.799-10.451 6.366-19.715 16.347-37.855 29.729-54.013 2.642-3.19 2.198-7.918-.992-10.56s-7.918-2.198-10.56.992c-14.85 17.929-25.85 38.11-32.782 60.058-4.858-.108-9.677 1.31-13.741 4.131-5.492 3.814-9.07 9.808-9.814 16.448-2.39 21.315-1.03 39.172 4.04 53.455-20.957 2.133-39.872 13.759-51.138 32.044-4.033 6.546-12.342 21.671-13.984 29.153-3.152 14.356 3.643 29.339 16.525 36.434 10.944 6.028 24.097 5.313 34.189-1.153 2.768 7.252 8.022 13.367 15.092 17.261 8.834 4.866 19.07 5.349 27.992 1.97 1.891 9.243 7.669 17.548 16.341 22.437-9.07 11.238-17.847 24.729-25.531 40.902-5.617 11.825-2.918 25.373 5.884 34.075l-4.054 7.836c-9.496 18.352-2.34 40.888 16.017 50.385 10.049 5.2 21.959 5.523 32.404.896 1.087 21.103 18.502 38.172 40.232 38.172h160.288c21.729 0 39.145-17.067 40.232-38.171 10.426 4.62 22.339 4.311 32.405-.896 18.353-9.496 25.514-32.029 16.017-50.386l-4.055-7.836c8.802-8.702 11.501-22.251 5.883-34.075-7.672-16.149-16.469-29.635-25.572-40.877 8.696-4.885 14.489-13.203 16.383-22.461 8.923 3.379 19.157 2.895 27.991-1.97 7.071-3.895 12.325-10.011 15.093-17.264 10.097 6.469 23.247 7.181 34.188 1.154 12.879-7.091 19.674-22.071 16.523-36.427zm-206.023 78.631c8.542 0 15.491 6.949 15.491 15.491s-6.949 15.491-15.491 15.491c-.001 0-.002 0-.003 0-8.533 0-15.489-6.982-15.489-15.491 0-8.682 7.127-15.491 15.492-15.491zm0 70.014c8.553 0 15.491 6.966 15.491 15.492 0 8.542-6.949 15.491-15.491 15.491s-15.491-6.949-15.491-15.491c-.001-8.491 6.934-15.492 15.491-15.492zm-175.149-229.987c0-47.63 26.747-89.839 66.8-111.193 6.103 5.587 14.084 8.859 22.622 8.867.014 0 .028.001.042.001h72.944c.014 0 .028-.001.042-.001 8.347-.008 16.421-3.164 22.623-8.867 40.705 21.743 66.8 64.123 66.8 111.193 0 57.179-38.388 105.898-91.224 121.07-80.662 23.047-160.649-37.816-160.649-121.07zm55.966 122.359c9.156 5.249 18.837 9.435 28.9 12.497v11.218c-2.426-.678-5.343-1.099-8.118-1.101-.008 0-.015-.001-.023-.001-16.733 0-30.492 13.596-30.492 30.492 0 16.865 13.768 30.492 30.492 30.492h.001c2.531 0 5.336-.336 8.14-1.102v11.234c-2.61-.725-5.473-1.102-8.132-1.102-.003 0-.005 0-.008 0-.013 0-.025.001-.038.001-8.923.017-17.193 3.908-22.852 10.348h-28.844c3.36-28.616 11.995-81.063 30.974-102.976zm20.759 68.596c-8.379 0-15.492-6.841-15.492-15.491 0-8.543 6.95-15.491 15.492-15.491 8.577 0 15.491 7.016 15.491 15.491.001 8.482-6.911 15.491-15.491 15.491zm0 39.032c8.55 0 15.491 6.984 15.491 15.492 0 8.542-6.949 15.491-15.491 15.491s-15.492-6.949-15.492-15.491c0 0 0 0 0-.001.001-8.613 7.03-15.491 15.492-15.491zm228.457-261.629c.018 4.292 5.048 34.382-7.444 55.564-8.198 13.95-22.049 20.447-38.219 21.134 4.899-14.503 7.355-29.68 7.355-45.056 0-7.686-.663-15.883-2.004-23.773 8.367-7.493 19.388-12.177 30.193-14.884 4.808-1.204 9.567 2.093 10.119 7.015zm-23.256-18.727c-7.259 2.544-14.538 6.073-20.797 10.45-3.599-12.22-9.176-24.725-16.597-36.255-12.946-20.114-30.618-36.345-50.941-47.481 1.439-3.694 2.259-7.942 2.259-12.111v-11.334c0-.384-.007-.767-.02-1.15 40.836 19.305 72.147 54.76 86.096 97.881zm-192.461-115.171h72.944c10.207 0 18.44 8.322 18.44 18.44v11.334c0 10.239-8.401 18.44-18.437 18.44-.001 0-.002 0-.003 0h-72.944c-.001 0-.002 0-.003 0-10.172 0-18.437-8.311-18.437-18.44v-11.334c0-10.049 8.164-18.44 18.44-18.44zm-142.773 133.899c.491-4.375 4.224-7.268 8.096-7.268 7.837 0 25.7 9.28 32.214 15.136-1.274 7.501-2.003 15.637-2.003 23.774 0 16.076 2.679 31.222 7.367 45.09-40.548-1.566-50.174-36.589-45.674-76.732zm41.671 176.958c-7.751-4.269-11.378-13.461-8.625-21.856 1.124-3.426-.35-7.167-3.508-8.907-3.146-1.732-7.098-.998-9.404 1.796-5.623 6.814-15.331 8.661-23.081 4.392-5.705-3.142-9.264-8.911-9.521-15.432-.165-4.194-3.024-7.66-7.113-8.626-3.888-.918-7.792.672-9.913 3.966-5.665 6.471-15.157 8.156-22.734 3.983-7.101-3.911-10.847-12.167-9.111-20.077.974-4.434 7.814-17.539 12.104-24.501 9.814-15.927 27.118-25.378 45.713-25.268 3.962 5.822 8.852 10.736 14.685 14.709 11.809 8.045 26.551 11.195 40.545 10.551 9.598 20.303 24.102 37.968 40.968 51.155-11.917 5.628-30.055 16.36-48.225 35.357-.956-.335-1.885-.749-2.78-1.242zm-19.504 60.311c14.042-29.557 35.397-55.909 63.473-73.453-13.446 28.555-19.953 68.498-23.173 99.896-.113 1.141-.522 5.117-.961 10.161-2.649-1.371-29.703-15.37-32.767-16.956-.001 0-.001 0-.002 0-7.13-3.7-10.051-12.32-6.57-19.648zm11.19 72.536c-10.987-5.684-15.276-19.175-9.587-30.169l3.428-6.626 33.07 17.112c-.255 3.909-.638 10.621-.872 15.618-.001.032-.003.063-.005.096-6.797 6.728-17.384 8.444-26.034 3.969zm226.032 37.39h-160.288c-14.284 0-25.733-11.798-25.284-26.13.501-16.329 1.449-33.075 2.923-49.088h23.236c-.289 1.705-.434 3.699-.434 5.143 0 16.813 13.679 30.492 30.492 30.492s30.492-13.679 30.492-30.492c0-7.486-2.806-14.545-7.351-19.846v-30.323c4.619-5.39 7.351-12.431 7.351-19.845 0-7.208-2.593-14.28-7.351-19.846v-17.092c8.296 1.549 17.335 2.411 26.071 2.411 8.872 0 18.003-.902 26.07-2.411v17.091c-4.701 5.494-7.351 12.552-7.351 19.844v.001c0 7.561 2.83 14.574 7.351 19.845v30.323c-4.603 5.394-7.347 12.378-7.351 19.844v.002c0 16.813 13.679 30.492 30.492 30.492s30.492-13.679 30.492-30.492c0-.005-.001-.009-.001-.014 0-1.45-.145-3.432-.433-5.129h23.236c1.501 16.344 2.427 32.938 2.922 49.088v.005c.447 14.28-10.954 26.127-25.284 26.127zm65.744-37.39c-8.649 4.475-19.236 2.758-26.035-3.969-.002-.045-.005-.089-.007-.135-.232-4.941-.524-10.261-.87-15.579l33.07-17.112 3.429 6.625c5.684 10.989 1.407 24.483-9.587 30.17zm5.466-53.39c2.416-1.173-33.507 17.402-33.614 17.458-1.188-13.657-2.793-27.334-4.904-40.546-.651-4.072-4.486-6.879-8.589-6.223-4.076.654-6.878 4.497-6.223 8.59.002.012.004.024.006.036 1.104 6.914 2.076 14.094 2.918 21.247h-28.846c-5.739-6.53-14.081-10.339-22.843-10.348-.015 0-.031-.001-.046-.001-.002 0-.004 0-.007 0-2.676 0-5.583.391-8.134 1.102v-11.234c2.725.747 5.551 1.102 8.141 1.102 16.813 0 30.492-13.678 30.492-30.492s-13.678-30.492-30.492-30.492c-.007 0-.014.001-.021.001-2.559.002-5.513.37-8.12 1.101v-11.218c10.071-3.064 19.759-7.254 28.921-12.509 10.938 12.471 18.503 37.091 22.39 53.159 1.047 4.325 5.603 6.786 9.79 5.308 3.576-1.259 5.706-5.052 4.79-8.836-3.226-13.33-7.622-27.567-13.436-39.862 27.515 17.059 49.269 43.452 63.55 73.512 3.273 6.888.941 15.123-5.723 19.145zm80.119-120.14c-7.573 4.171-17.062 2.488-22.74-3.991-2.132-3.292-6.028-4.875-9.906-3.959-4.089.966-6.948 4.432-7.115 8.627-.257 6.521-3.816 12.29-9.521 15.432-7.751 4.269-17.458 2.422-23.081-4.392-2.295-2.781-6.244-3.536-9.403-1.796s-4.632 5.481-3.508 8.908c2.754 8.394-.874 17.586-8.624 21.855-.906.499-1.845.918-2.814 1.255-18.191-19.002-36.293-29.729-48.174-35.356 17.508-13.607 31.472-31.028 40.948-51.156 21.729 1.07 42.578-6.742 55.166-25.275 18.639-.13 35.953 9.326 45.778 25.271 4.16 6.752 11.109 19.966 12.102 24.498v.002c1.739 7.91-2.007 16.166-9.108 20.077z" fill="#000000" data-original="#000000" class=""></path><path d="m292.24 277.731c5.258 0 10.544-.908 15.609-2.755 11.198-4.083 18.646-14.833 18.534-26.75-.138-14.782-7.465-28.627-19.601-37.035-3.963-2.746-8.337-4.836-12.926-6.205.309-1.957.474-3.961.474-6.003 0-21.135-17.195-38.33-38.33-38.33s-38.33 17.195-38.33 38.33c0 2.042.165 4.046.474 6.003-4.59 1.369-8.963 3.459-12.926 6.205-11.816 8.186-19.136 21.662-19.581 36.048-.393 12.695 7.421 23.974 19.446 28.066 13.625 4.637 28.814 2.518 40.633-5.672l.252-.176c6.093-4.283 13.969-4.283 20.054-.007l.266.187c7.71 5.341 16.791 8.094 25.952 8.094zm-36.24-102.077c12.864 0 23.329 10.466 23.329 23.329 0 12.931-10.54 23.329-23.318 23.329-.004 0-.007 0-.011 0-.003 0-.006 0-.01 0-12.828 0-23.32-10.442-23.32-23.329.001-12.864 10.466-23.329 23.33-23.329zm-18.669 81.539-.163.114c-8.042 5.571-17.974 6.956-27.253 3.798-5.742-1.954-9.473-7.34-9.285-13.402.303-9.796 5.089-18.61 13.13-24.181 2.927-2.028 6.184-3.524 9.6-4.426 7.063 11.499 19.552 18.218 32.623 18.218h.017.019c13.082-.008 25.565-6.731 32.621-18.218 3.416.902 6.674 2.399 9.6 4.427 8.138 5.638 13.051 14.926 13.144 24.846.052 5.576-3.433 10.607-8.673 12.517-9.319 3.398-19.742 2.061-27.875-3.574l-.177-.124c-11.161-7.847-26.157-7.847-37.328.005z" fill="#000000" data-original="#000000" class=""></path></g></g></g></svg>