<svg xmlns="http://www.w3.org/2000/svg" version="1.1" xmlns:xlink="http://www.w3.org/1999/xlink" xmlns:svgjs="http://svgjs.com/svgjs" width="512" height="512" x="0" y="0" viewBox="0 0 512 512" style="enable-background:new 0 0 512 512" xml:space="preserve" class=""><g><g xmlns="http://www.w3.org/2000/svg"><g><path d="m494.667 164.995c0 85.869-106.855 165.56-238.667 165.56s-238.667-79.691-238.667-165.56 106.855-157.495 238.667-157.495 238.667 71.627 238.667 157.495z" fill="#fccb88" data-original="#fccb88"></path><path d="m121.916 182.482c0-84.073 57.386-154.737 135.123-174.973-.347-.001-.691-.009-1.039-.009-131.812 0-238.667 71.626-238.667 157.496 0 70.905 72.862 137.592 172.468 158.683-41.378-33.133-67.885-84.066-67.885-141.197z" fill="#fbc072" data-original="#fbc072"></path><path d="m154.375 409.364c0-56.126 45.499-101.625 101.625-101.625s101.625 45.499 101.625 101.625-45.499 72.598-101.625 72.598-101.625-16.472-101.625-72.598z" fill="#e3986d" data-original="#e3986d"></path><path d="m363.583 177.721-30.807-49.547c29.003-21.422 63.005-19.93 84.357-15.827 13.115 2.52 22.813 13.639 23.74 26.966.091 1.341.181 2.732.242 4.173z" fill="#e3986d" data-original="#e3986d"></path><path d="m403.513 241.926-39.93-64.205c12.248-21.482 35.364-35.968 61.866-35.968 5.383 0 10.625.595 15.666 1.734 1.31 27.863-2.904 72.178-37.602 98.439z" fill="#ffdde3" data-original="#ffdde3"></path><path d="m148.417 177.721 30.807-49.547c-29.003-21.422-63.005-19.93-84.357-15.827-13.115 2.52-22.813 13.639-23.74 26.966-.091 1.341-.181 2.732-.242 4.173z" fill="#e3986d" data-original="#e3986d"></path><path d="m108.487 241.926 39.93-64.205c-12.248-21.482-35.364-35.968-61.866-35.968-5.383 0-10.625.595-15.666 1.734-1.31 27.863 2.904 72.178 37.602 98.439z" fill="#ffdde3" data-original="#ffdde3"></path><path d="m197.506 380.127c0-24.258 7.661-46.726 20.693-65.12-37.405 14.999-63.824 51.59-63.824 94.356 0 53.799 41.806 71.161 94.703 72.508-31.034-23.036-51.572-62.023-51.572-101.744z" fill="#de8957" data-original="#de8957"></path><path d="m297.009 357.294c-13.023 1.578-26.782 2.273-41.009 2.273-81.784 0-148.083-22.952-148.083-104.736s66.299-148.083 148.083-148.083 148.083 66.299 148.083 148.083c0 62.316-38.492 90.475-92.997 100.35v7.17h-14.086z" fill="#e8a882" data-original="#e8a882" class=""></path><path d="m360.932 229.98c-5.242-21.593-17.5-42.854-36.967-58.701-9.738-7.944-23.216-9.143-34.446-3.518-10.333 5.171-21.644 8.024-33.519 8.024s-23.186-2.853-33.519-8.024c-11.23-5.625-24.708-4.426-34.446 3.518-19.466 15.847-31.724 37.108-36.967 58.701-5.081 20.877 10.897 40.958 32.38 40.958 11.802 0 22.755-6.242 28.73-16.512 4.567-7.863 11.049-16.986 19.295-23.67 6.946-5.645 15.141-9.567 24.527-9.567 9.385 0 17.581 3.921 24.527 9.567 8.246 6.684 14.728 15.807 19.295 23.67 5.948 10.232 16.896 16.512 28.73 16.512 21.621.001 37.441-20.238 32.38-40.958z" fill="#d97c40" data-original="#d97c40"></path><path d="m280.527 230.756c-3.226 10.484-12.994 18.105-24.527 18.105-11.532 0-21.301-7.621-24.527-18.105 6.946-5.645 15.141-9.567 24.527-9.567 9.385.001 17.581 3.922 24.527 9.567z" fill="#423e4f" data-original="#423e4f"></path><path d="m282.339 353.386c-24.249 0-43.907 19.658-43.907 43.907s19.658 33.023 43.907 33.023 43.907-8.774 43.907-33.023-19.658-43.907-43.907-43.907z" fill="#ffefe0" data-original="#ffefe0"></path><g fill="#f1c6ad"><path d="m368.629 344.444h-40.348c-13.559 0-24.551 10.992-24.551 24.551 0 13.559 10.992 24.551 24.551 24.551h40.348c13.559 0 24.551-10.992 24.551-24.551.001-13.559-10.991-24.551-24.551-24.551z" fill="#f1c6ad" data-original="#f1c6ad" class=""></path><path d="m190.933 453.699c-17.699 0-32.047 14.348-32.047 32.047 0 10.358 8.397 18.755 18.755 18.755h26.584c10.358 0 18.755-8.397 18.755-18.755 0-17.7-14.348-32.047-32.047-32.047z" fill="#f1c6ad" data-original="#f1c6ad" class=""></path><path d="m321.067 453.699c17.699 0 32.047 14.348 32.047 32.047 0 10.358-8.397 18.755-18.755 18.755h-26.584c-10.358 0-18.755-8.397-18.755-18.755 0-17.7 14.348-32.047 32.047-32.047z" fill="#f1c6ad" data-original="#f1c6ad" class=""></path></g><path d="m144.554 345.663h-21.993c-16.924 0-30.644 13.72-30.644 30.644v29.786c0 16.924 13.72 30.644 30.644 30.644h21.993c16.924 0 30.644-13.72 30.644-30.644v-29.786c0-16.924-13.72-30.644-30.644-30.644z" fill="#fbe29f" data-original="#fbe29f"></path><path d="m140.261 248.243c0-44.65 14.225-85.975 38.383-119.701-42.426 26.042-70.728 72.859-70.728 126.29 0 47.051 21.947 74.625 56.159 89.564-15.195-28.7-23.814-61.418-23.814-96.153z" fill="#e3986d" data-original="#e3986d"></path><path d="m171.655 310.015h-15.71c-13.173 0-23.851 10.679-23.851 23.851 0 17.511 14.195 31.706 31.706 31.706 17.511 0 31.706-14.195 31.706-31.706 0-13.173-10.679-23.851-23.851-23.851z" fill="#f1c6ad" data-original="#f1c6ad" class=""></path><path d="m294.836 90.666c-12.385-12.208-31.748-15.478-47.828-6.756-12.769 6.926-20.328 19.712-21.157 33.216-.425 6.927 3.148 13.515 9.186 16.936 11.771 6.669 26.611 7.305 39.38.379 16.08-8.722 23.898-26.736 20.419-43.775z" fill="#80dfb5" data-original="#80dfb5"></path><path d="m270.14 371.757c0-5.994.862-11.782 2.44-17.269-19.549 4.44-34.146 21.912-34.146 42.804 0 24.249 19.658 33.023 43.907 33.023 7.906 0 15.317-.94 21.725-3.038-20.14-10.351-33.926-31.319-33.926-55.52z" fill="#fbe5c8" data-original="#fbe5c8"></path><path d="m114.891 376.08c0-11.089 2.99-21.473 8.186-30.417h-.516c-16.924 0-30.644 13.72-30.644 30.645v29.786c0 16.924 13.72 30.645 30.644 30.645h15.986c-15.68-13.31-23.656-37.828-23.656-60.659z" fill="#fccb88" data-original="#fccb88"></path></g><g><path d="m151.318 262.818c7.801 9.927 19.512 15.621 32.13 15.621 14.456 0 27.948-7.756 35.215-20.246 3.351-5.77 7.001-10.871 10.786-15.107 6.116 8.209 15.812 13.275 26.551 13.275s20.435-5.066 26.551-13.276c3.784 4.235 7.435 9.338 10.787 15.11 7.258 12.486 20.751 20.243 35.214 20.243 12.624 0 24.333-5.692 32.126-15.618 7.752-9.874 10.5-22.491 7.541-34.617-5.966-24.571-20-46.852-39.513-62.736-11.868-9.682-28.569-11.414-42.544-4.414-9.586 4.798-19.734 7.231-30.162 7.231s-20.575-2.433-30.16-7.23c-13.976-7.001-30.677-5.269-42.54 4.408-19.519 15.89-33.554 38.175-39.519 62.744-2.954 12.142-.207 24.757 7.537 34.612zm104.682-21.457c-6.236 0-11.838-3.109-15.132-8.09 1.97-1.2 4.147-2.264 6.334-3.024.047-.017.095-.032.143-.048 5.765-1.97 11.607-1.964 17.374.021.014.005.028.01.042.015 2.216.766 4.408 1.841 6.371 3.037-3.294 4.98-8.896 8.089-15.132 8.089zm-97.643-9.611c5.198-21.409 17.419-40.819 34.419-54.659 7.3-5.955 17.642-6.984 26.349-2.623 11.69 5.851 24.097 8.817 36.876 8.817s25.186-2.966 36.877-8.818c8.706-4.361 19.047-3.331 26.353 2.629 16.994 13.834 29.216 33.244 34.414 54.654 0 .003.001.007.002.01 1.862 7.624.125 15.569-4.766 21.798-4.931 6.279-12.34 9.881-20.328 9.881-9.139 0-17.664-4.897-22.245-12.779-28.356-48.827-71.616-49.928-100.611-.005-4.588 7.886-13.113 12.784-22.248 12.784-7.985 0-15.398-3.604-20.336-9.889-4.883-6.213-6.616-14.157-4.756-21.8z" fill="#000000" data-original="#000000" class=""></path><path d="m193.047 245.065c4.142 0 7.5-3.358 7.5-7.5v-12.097c0-4.142-3.358-7.5-7.5-7.5s-7.5 3.358-7.5 7.5v12.097c0 4.143 3.358 7.5 7.5 7.5z" fill="#000000" data-original="#000000" class=""></path><path d="m318.954 245.065c4.142 0 7.5-3.358 7.5-7.5v-12.097c0-4.142-3.358-7.5-7.5-7.5s-7.5 3.358-7.5 7.5v12.097c0 4.143 3.358 7.5 7.5 7.5z" fill="#000000" data-original="#000000" class=""></path><path d="m282.195 263.185c-4.142 0-7.5 3.357-7.5 7.5 0 3.086-2.511 5.597-5.597 5.597s-5.597-2.511-5.597-5.597c0-4.143-3.358-7.5-7.5-7.5s-7.5 3.357-7.5 7.5c0 3.086-2.511 5.597-5.597 5.597s-5.597-2.511-5.597-5.597c0-4.143-3.358-7.5-7.5-7.5s-7.5 3.357-7.5 7.5c0 11.357 9.24 20.597 20.597 20.597 4.97 0 9.535-1.77 13.097-4.712 3.562 2.942 8.127 4.712 13.097 4.712 11.357 0 20.597-9.24 20.597-20.597 0-4.143-3.358-7.5-7.5-7.5z" fill="#000000" data-original="#000000" class=""></path><path d="m129.554 39.815c37.734-16.234 81.458-24.815 126.446-24.815 62.105 0 120.568 16.087 164.618 45.297 42.915 28.458 66.549 65.64 66.549 104.698 0 22.783-8.339 46.194-24.115 67.702-2.45 3.34-1.729 8.034 1.611 10.483 3.348 2.455 8.039 1.721 10.483-1.611 17.677-24.1 27.02-50.578 27.02-76.574 0-44.25-26.017-85.873-73.259-117.199-46.479-30.822-107.886-47.796-172.907-47.796-47.01 0-92.784 9.003-132.374 26.037-3.805 1.637-5.563 6.048-3.926 9.854 1.639 3.804 6.052 5.561 9.854 3.924z" fill="#000000" data-original="#000000" class=""></path><path d="m109.714 302.631c3.979 8.907 9.222 16.921 15.733 23.994-.552 2.326-.854 4.749-.854 7.241 0 1.453.086 2.885.24 4.297h-2.273c-21.033 0-38.144 17.112-38.144 38.145v29.786c0 21.033 17.111 38.145 38.144 38.145h21.994c3.058 0 6.03-.372 8.882-1.055 2.417 5.433 5.499 10.429 9.234 14.939-6.974 7.134-11.283 16.882-11.283 27.623 0 14.477 11.778 26.255 26.255 26.255h26.583c13.658 0 24.909-10.485 26.138-23.828 7.973.852 16.552 1.29 25.637 1.29 9.079 0 17.658-.438 25.637-1.291 1.229 13.344 12.479 23.83 26.138 23.83h26.584c14.477 0 26.255-11.778 26.255-26.255 0-10.745-4.313-20.497-11.291-27.631 10.48-12.653 15.802-29 15.802-48.75 0-2.757-.111-5.536-.324-8.317h3.829c17.673 0 32.051-14.378 32.051-32.051 0-15.63-11.248-28.674-26.073-31.483 12.301-9.406 21.544-21.059 27.718-34.89 19.822-10.639 37.359-23.242 52.144-37.501 2.982-2.875 3.068-7.623.192-10.604-2.875-2.981-7.624-3.068-10.604-.192-10.277 9.911-22.008 18.985-35.017 27.098 2.375-11.642 2.975-24.195 2.251-36.104 30.729-25.507 39.732-67.025 37.065-106.51 0-.006 0-.011-.001-.017-1.167-16.759-13.424-30.663-29.807-33.811-23.174-4.453-56.465-5.371-86.104 14.289-9.346-5.271-19.33-9.621-29.848-12.912.593-3.779.735-7.664.397-11.584l16.883-9.158c3.641-1.975 4.991-6.527 3.017-10.168-1.975-3.641-6.527-4.992-10.169-3.017l-16.882 9.157c-14.962-11.679-35.359-13.52-52.409-4.271-10.548 5.721-18.334 14.941-22.271 25.865-5.259 1.203-10.41 2.662-15.434 4.375-7.493 2.556-14.711 5.663-21.611 9.269-1.524.796-3.028 1.625-4.521 2.469-29.649-19.687-62.96-18.769-86.142-14.314-16.383 3.148-28.641 17.051-29.808 33.825-2.667 39.511 6.345 81.017 37.07 106.517-.735 12.002-.118 24.497 2.245 36.092-21.509-13.428-39.579-29.506-52.858-47.131-16.53-21.941-25.268-45.9-25.268-69.289 0-42.072 28.182-82.672 77.32-111.391 3.576-2.09 4.781-6.683 2.691-10.259-2.09-3.577-6.684-4.781-10.259-2.691-53.865 31.476-84.755 76.796-84.755 124.339 0 26.671 9.782 53.752 28.288 78.314 17.334 23.008 42.06 43.47 71.593 59.321zm34.84 126.607h-21.994c-12.762 0-23.144-10.383-23.144-23.145v-29.786c0-12.762 10.382-23.145 23.144-23.145h7.105c7.042 12.508 20.216 19.9 34.11 19.909.008 0 .016.001.024.001 1.097 0 2.445-.057 3.649-.17.15 1.034.25 2.347.25 3.405v29.786c0 12.525-10.213 23.145-23.144 23.145zm-4.96-95.372c0-8.96 7.283-16.352 16.352-16.352h15.71c8.412 0 15.423 6.409 16.267 14.682 1.324 13.051-9.609 25.862-24.104 25.875-.006 0-.012 0-.018 0-.005 0-.01 0-.015 0-13.452-.011-24.192-10.983-24.192-24.205zm64.631 163.134h-26.583c-6.206 0-11.255-5.049-11.255-11.255 0-13.522 11.01-24.546 24.546-24.546 13.514 0 24.547 11.012 24.547 24.546 0 6.206-5.049 11.255-11.255 11.255zm130.134 0h-26.584c-6.206 0-11.254-5.049-11.254-11.255 0-13.535 11.037-24.546 24.546-24.546 13.542 0 24.547 11.041 24.547 24.546 0 6.206-5.049 11.255-11.255 11.255zm2.606-47.466c-4.903-2.135-10.26-3.335-15.898-3.335-.015 0-.03.001-.045.001-16.744.014-31.837 10.718-37.34 26.638-8.434 1.079-17.72 1.624-27.682 1.624-9.97 0-19.256-.545-27.681-1.622-5.411-15.67-20.335-26.626-37.341-26.64-.015 0-.03-.001-.045-.001-5.367 0-10.816 1.108-15.891 3.333-3.305-3.771-5.955-7.956-8.002-12.633 9.475-6.968 15.659-18.234 15.659-30.805v-29.786c0-3.042-.295-5.065-.774-7.684 3.346-1.731 7.245-4.585 10.125-7.567 15.852 3.415 32.927 5.165 48.939 5.737-6.732 9.103-10.056 19.877-10.056 30.499 0 25.753 18.737 40.523 51.406 40.523 26.693 0 49.286-10.283 51.269-36.769h16.146c.248 2.782.372 5.563.372 8.317-.001 16.869-4.314 30.069-13.161 40.17zm-18.307-49.947c-1.294 18.25-17.964 23.229-36.319 23.229-24.157 0-36.406-8.587-36.406-25.523 0-19.861 16.157-36.407 36.406-36.407 4.739 0 9.582.916 14.309 2.943-.267 1.654-.417 3.671-.417 5.167 0 14.153 9.183 26.489 22.427 30.591zm67.023-30.591c0 9.402-7.649 17.051-17.051 17.051h-40.348c-9.483 0-17.051-7.734-17.051-17.051v-.001c0-9.196 7.506-17.05 17.051-17.05h40.348c9.402-.001 17.051 7.648 17.051 17.051zm48.129-219.177c.598 38.865-11.46 62.639-24.748 76.993-4.073-22.372-12.999-43.294-25.825-61.531 13.433-11.952 31.772-17.932 50.573-15.462zm-18.093-30.107c7.934 1.524 14.237 7.326 16.657 14.842-20.908-1.859-42.219 4.929-58.369 18.864-8.162-9.51-17.222-17.824-27.477-25.168 24.004-13.21 50.349-12.158 69.189-8.538zm-182.38-2.127c.704-11.465 7.138-21.599 17.248-27.083 9.518-5.162 20.668-5.361 30.175-.733l-22.196 12.04c-3.641 1.975-4.991 6.527-3.017 10.168 1.969 3.629 6.517 4.997 10.169 3.017l22.178-12.03c-1.445 11.591-9.233 22.141-20.92 26.676-9.532 3.698-19.826 2.664-28.24-2.104-3.538-2.005-5.645-5.917-5.397-9.951zm-14.993 1.769c.394 8.783 5.293 16.943 13.39 21.44 12.982 7.201 27.834 7.821 40.694 2.82 10.949-4.266 20.128-12.378 25.542-22.991 28.388 8.85 52.289 26.236 69.413 48.436 30.119 39.05 36.009 91.719 22.163 125.328-.024.058-.035.118-.057.175-7.825 18.859-22.168 32.869-43.261 42.383h-17.945c-.001 0-.003 0-.005 0-9.699.008-18.693 4.296-24.906 11.913-.909.138-1.822.271-2.736.399-5.888-2.243-12.116-3.37-18.295-3.37-8.57 0-16.983 2.158-24.417 6.169-18.415.14-39.063-1.132-57.338-4.577 2.049-5.525 2.992-12.296 2.06-18.379-2.29-14.938-15.246-26.583-30.99-26.583h-15.71c-.066 0-.132.005-.198.005-8.84.054-16.997 3.8-22.722 9.937-27.162-33.977-24.894-105.158 20.343-153.622 18.264-19.574 40.961-32.83 64.975-39.483zm-122.061.358c18.848-3.622 45.21-4.673 69.223 8.556-10.146 7.256-19.347 15.675-27.498 25.161-16.027-13.839-37.349-20.745-58.382-18.875 2.42-7.516 8.722-13.318 16.657-14.842zm6.656 107.103c-13.288-14.354-25.348-38.129-24.75-76.996 18.095-2.377 36.419 2.988 50.577 15.466-13.018 18.458-21.801 39.416-25.827 61.53z" fill="#000000" data-original="#000000" class=""></path></g></g></g></svg>