<svg xmlns="http://www.w3.org/2000/svg" version="1.1" xmlns:xlink="http://www.w3.org/1999/xlink" xmlns:svgjs="http://svgjs.com/svgjs" width="512" height="512" x="0" y="0" viewBox="0 0 512.006 512.006" style="enable-background:new 0 0 512 512" xml:space="preserve" class=""><g><g xmlns="http://www.w3.org/2000/svg"><g><g><g><g><circle cx="414.216" cy="239.723" fill="#f82f40" r="39.978" data-original="#f82f40" class=""></circle></g><g><circle cx="81.78" cy="239.723" fill="#f82f40" r="39.978" data-original="#f82f40" class=""></circle></g></g><g><path d="m347.336 356.128h-198.676s-134.093 35.867-134.093 148.377h466.862c0-112.51-134.093-148.377-134.093-148.377z" fill="#f82f40" data-original="#f82f40" class=""></path><path d="m399.828 378.945c-17.566 50.167-60.815 88.434-151.83 88.434s-134.264-38.268-151.83-88.434c28.026-16.276 52.489-22.816 52.489-22.816h198.682s24.463 6.54 52.489 22.816z" fill="#e22334" data-original="#e22334" class=""></path><path d="m481.424 504.505h-53.819c0-112.51-134.095-148.376-134.095-148.376h53.829s134.085 35.866 134.085 148.376z" fill="#e22334" data-original="#e22334" class=""></path><g><g><g><g><g><path d="m334.365 11.896-46.688 82.17 78.538 13.848-15.768-93.183c-1.36-8.037-12.055-9.923-16.082-2.835z" fill="#fcb44d" data-original="#fcb44d"></path></g><g><path d="m366.211 107.918-23.464-4.137-13.903-82.171 5.523-9.711c4.022-7.088 14.717-5.203 16.081 2.836z" fill="#fb9927" data-original="#fb9927"></path></g></g></g></g><g><g><g><g><path d="m145.549 14.731-15.768 93.183 78.538-13.848-46.688-82.17c-4.027-7.088-14.722-5.202-16.082 2.835z" fill="#fcb44d" data-original="#fcb44d"></path></g><g><path d="m208.316 94.07-23.464 4.137-41.169-72.46 1.869-11.014c1.355-8.037 12.05-9.923 16.081-2.836z" fill="#fb9927" data-original="#fb9927"></path></g></g></g></g></g><path d="m366.829 132.252h-237.662c-15.091 38.053-108.617 295.107 118.831 295.107s133.922-257.054 118.831-295.107z" fill="#fb4a59" data-original="#fb4a59" class=""></path><path d="m247.998 427.355c-5.756 0-11.314-.169-16.663-.486 206.105-12.386 116.877-257.523 102.17-294.619h33.325c15.095 38.059 108.62 295.105-118.832 295.105z" fill="#f82f40" data-original="#f82f40" class=""></path><g><g><path d="m356.47 99.4c-5.683-.335-11.035.99-15.614 3.535-3.386 1.882-7.624.147-8.918-3.505-3.934-11.105-14.526-19.059-26.979-19.059-7.188 0-13.754 2.653-18.779 7.031-2.388 2.08-6.059 1.496-7.862-1.107-6.511-9.4-17.369-15.559-29.67-15.559-12.208 0-22.993 6.066-29.519 15.346-2.219 3.155-6.619 3.612-9.555 1.11-4.993-4.253-11.463-6.821-18.536-6.821-12.453 0-23.045 7.954-26.979 19.059-1.294 3.652-5.532 5.387-8.918 3.505-4.58-2.545-9.931-3.87-15.614-3.535-14.291.842-25.945 12.456-26.831 26.744-1.032 16.634 12.153 30.446 28.564 30.446 5.11 0 9.908-1.339 14.06-3.686 3.355-1.896 7.582-.271 8.944 3.334 4.086 10.814 14.53 18.504 26.774 18.504 7.188 0 13.754-2.653 18.779-7.031 2.388-2.08 6.059-1.496 7.862 1.107 6.511 9.4 17.369 15.56 29.67 15.56 12.208 0 22.993-6.066 29.519-15.346 2.219-3.155 6.619-3.612 9.555-1.11 4.993 4.253 11.463 6.821 18.536 6.821 12.244 0 22.688-7.69 26.774-18.504 1.362-3.605 5.589-5.23 8.944-3.334 4.153 2.347 8.95 3.686 14.06 3.686 16.411 0 29.596-13.812 28.564-30.446-.886-14.289-12.54-25.903-26.831-26.745z" fill="#3f5959" data-original="#3f5959"></path><path d="m354.732 156.594c-5.101 0-9.904-1.34-14.053-3.692-3.354-1.896-7.582-.268-8.952 3.335-4.079 10.817-14.529 18.509-26.765 18.509-7.076 0-13.547-2.57-18.538-6.828-2.938-2.501-7.334-2.044-9.557 1.112-6.53 9.279-17.308 15.353-29.515 15.353-12.306 0-23.163-6.163-29.673-15.561-1.806-2.61-5.478-3.186-7.86-1.111-5.032 4.377-11.591 7.036-18.786 7.036-12.236 0-22.687-7.691-26.765-18.509-1.37-3.602-5.597-5.23-8.952-3.335-4.148 2.352-8.951 3.692-14.053 3.692-15.889 0-28.76-12.951-28.621-28.869 3.642 1.677 7.691 2.61 11.959 2.61 5.101 0 9.904-1.34 14.053-3.682 3.354-1.896 7.582-.268 8.952 3.334 4.079 10.807 14.529 18.499 26.765 18.499 7.195 0 13.755-2.65 18.786-7.026 2.382-2.084 6.054-1.499 7.86 1.111 6.51 9.398 17.367 15.551 29.673 15.551 12.207 0 22.984-6.064 29.514-15.343 2.223-3.156 6.619-3.612 9.557-1.112 4.992 4.257 11.462 6.818 18.538 6.818 12.236 0 22.687-7.691 26.766-18.499 1.369-3.602 5.597-5.23 8.951-3.334 4.148 2.342 8.952 3.682 14.053 3.682 15.72 0 28.492-12.663 28.621-28.353 9.279 4.317 15.948 13.497 16.613 24.165 1.033 16.632-12.156 30.447-28.571 30.447z" fill="#384848" data-original="#384848"></path></g></g><g><g><g><path d="m340.779 376.977c-11.046-11.492-27.649-20.741-47.547-26.388l23.609-41.552c3.206-5.657 11.73-4.148 12.822 2.253z" fill="#fcb44d" data-original="#fcb44d"></path></g><g><path d="m203.786 350.3c-20.612 5.687-37.761 15.234-48.995 27.123l11.542-68.209c1.092-6.411 9.617-7.91 12.822-2.263z" fill="#fcb44d" data-original="#fcb44d"></path></g></g></g><g><g><path d="m247.927 287.389h.143c10.035 0 18.942 6.429 22.101 15.954l1.015 3.06c2.141 6.456-2.665 13.114-9.466 13.114h-27.443c-6.801 0-11.608-6.658-9.466-13.114l1.015-3.06c3.159-9.525 12.065-15.954 22.101-15.954z" fill="#e22334" data-original="#e22334" class=""></path></g></g><g><g><g><path d="m159.727 216.627c-4.913 4.643-8.56 10.756-10.166 17.905-4.007 17.835 6.54 36.026 24.011 41.406 19.237 5.924 39.367-5.349 44.504-24.618 1.748-6.556 1.524-13.17-.3-19.222-.658-2.184-2.449-3.841-4.652-4.428l-47.154-12.57c-2.205-.588-4.584-.04-6.243 1.527z" fill="#eef4f5" data-original="#eef4f5"></path><path d="m218.076 251.325c-5.141 19.263-25.267 30.537-44.5 24.612-3.771-1.161-7.225-2.918-10.272-5.141 15.938.407 30.666-10.103 34.953-26.19 1.747-6.56 1.518-13.169-.308-19.223-.228-.754-.586-1.439-1.052-2.044l16.226 4.327c2.203.595 3.99 2.253 4.654 4.436 1.817 6.043 2.045 12.663.299 19.223z" fill="#cbe5e7" data-original="#cbe5e7"></path></g><g><circle cx="191.969" cy="260.682" fill="#3f5959" r="15.174" data-original="#3f5959"></circle><path d="m206.633 264.593c-2.158 8.095-10.474 12.911-18.576 10.751-2.703-.721-5.041-2.123-6.867-3.983 6.416.74 12.574-3.313 14.287-9.741 1.714-6.428-1.61-13.009-7.543-15.56 2.51-.705 5.235-.757 7.938-.037 8.104 2.159 12.921 10.468 10.761 18.57z" fill="#384848" data-original="#384848"></path></g></g><g><g><path d="m336.267 216.627c4.914 4.643 8.56 10.756 10.166 17.905 4.007 17.835-6.54 36.026-24.011 41.406-19.237 5.924-39.367-5.349-44.504-24.618-1.748-6.556-1.524-13.17.3-19.222.658-2.184 2.449-3.841 4.652-4.428l47.153-12.57c2.206-.588 4.585-.04 6.244 1.527z" fill="#eef4f5" data-original="#eef4f5"></path><path d="m322.418 275.936c-5.875 1.806-11.83 2.015-17.417.873 15.244-6.639 24.046-23.49 20.335-40.044-1.588-7.066-5.18-13.12-10.013-17.744l14.698-3.92c2.213-.585 4.585-.04 6.242 1.528 4.922 4.645 8.565 10.758 10.172 17.903 4.009 17.835-6.54 36.026-24.017 41.404z" fill="#cbe5e7" data-original="#cbe5e7"></path></g><g><circle cx="319.94" cy="260.682" fill="#3f5959" r="15.174" data-original="#3f5959"></circle><path d="m334.604 264.593c-2.158 8.095-10.474 12.911-18.576 10.751-2.703-.721-5.041-2.123-6.866-3.983 6.416.74 12.574-3.313 14.287-9.741 1.714-6.428-1.61-13.009-7.543-15.56 2.51-.705 5.235-.757 7.938-.037 8.103 2.159 12.92 10.468 10.76 18.57z" fill="#384848" data-original="#384848"></path></g></g></g></g></g><path d="m412.457 392.892c-8.146 20.631-46.95 100.167-164.456 111.613h249.435s-10.143-82.768-78.265-114.331c-2.593-1.202-5.664.059-6.714 2.718z" fill="#fcb44d" data-original="#fcb44d"></path><path d="m497.438 504.505h-58.68c0-38.74-15.9-68.39-36.75-90.62 5.33-8.97 8.64-16.42 10.45-20.99 1.05-2.66 4.12-3.92 6.71-2.72 68.13 31.56 78.27 114.33 78.27 114.33z" fill="#fb9927" data-original="#fb9927"></path><path d="m449.328 410.235c-8.14 23.34-28.34 65.57-73.79 94.27h-127.54c117.51-11.45 156.31-90.98 164.46-111.61 1.05-2.66 4.12-3.92 6.71-2.72 11.68 5.41 21.65 12.32 30.16 20.06z" fill="#eef4f5" data-original="#eef4f5"></path><path d="m449.328 410.235c-3.87 11.09-10.46 26.45-21.2 42.61-6.58-14.97-15.73-27.88-26.12-38.96 5.33-8.97 8.64-16.42 10.45-20.99 1.05-2.66 4.12-3.92 6.71-2.72 11.68 5.41 21.65 12.32 30.16 20.06z" fill="#cbe5e7" data-original="#cbe5e7"></path></g><g><path d="m52.895 411.973c-3.109-2.735-7.85-2.433-10.585.678-23.385 26.586-35.242 57.49-35.242 91.854 0 4.142 3.357 7.5 7.5 7.5s7.5-3.358 7.5-7.5c0-30.609 10.6-58.18 31.506-81.947 2.735-3.11 2.432-7.849-.679-10.585z" fill="#000000" data-original="#000000" class=""></path><path d="m147.279 386.242c3.182 2.648 7.912 2.217 10.563-.968 16.816-20.207 52.205-33.264 90.157-33.264s73.341 13.057 90.157 33.264c1.483 1.783 3.618 2.703 5.769 2.703 1.691 0 3.393-.569 4.794-1.735 3.184-2.65 3.616-7.379.967-10.563-.611-.734-1.24-1.458-1.886-2.175l-10.74-63.477c-1.039-6.088-5.642-10.711-11.726-11.776-6.081-1.063-11.973 1.718-15.011 7.079l-20.764 36.544c-13.016-3.165-27.062-4.865-41.559-4.865-14.111 0-27.792 1.615-40.513 4.619l-21.808-38.379c-3.045-5.366-8.942-8.143-15.019-7.076-6.082 1.068-10.683 5.692-11.721 11.79l-11.175 66.044c-.491.554-.981 1.109-1.451 1.673-2.65 3.183-2.218 7.912.966 10.562zm175.268-72.064 7.533 44.513c-7.632-4.917-16.304-9.104-25.754-12.443zm-149.095-2.082 19.213 33.811c-9.997 3.451-19.149 7.839-27.14 13.037z" fill="#000000" data-original="#000000" class=""></path><path d="m247.927 279.889c-13.292 0-25.034 8.477-29.221 21.093l-1.014 3.059c-1.763 5.311-.859 11.191 2.416 15.729s8.572 7.247 14.169 7.247h27.442c5.596 0 10.893-2.709 14.168-7.247 3.275-4.537 4.179-10.417 2.417-15.728l-1.016-3.06c-4.184-12.617-15.927-21.093-29.22-21.093zm15.125 25.815 1.016 3.06c.347 1.045-.066 1.844-.343 2.227-.276.383-.904 1.026-2.005 1.026h-27.442c-1.102 0-1.729-.643-2.006-1.026-.276-.383-.688-1.182-.342-2.227l1.014-3.059c2.146-6.469 8.168-10.816 14.983-10.816h.143c6.816 0 12.837 4.346 14.982 10.815z" fill="#000000" data-original="#000000" class=""></path><path d="m154.576 211.176c-6.191 5.852-10.456 13.36-12.331 21.711-4.861 21.634 7.93 43.693 29.121 50.218 4.188 1.29 8.459 1.928 12.701 1.928 5.739 0 11.42-1.189 16.773-3.499.075-.032.15-.065.225-.098 1.232-.54 2.453-1.12 3.646-1.781 10.269-5.687 17.589-15.064 20.612-26.404 2.045-7.671 1.919-15.735-.366-23.319-1.39-4.608-5.183-8.251-9.901-9.51l-47.153-12.57c-4.719-1.258-9.827.017-13.327 3.324zm44.809 51.483c-1.09 4.089-5.3 6.529-9.393 5.439-4.089-1.09-6.528-5.304-5.438-9.392.914-3.429 4.024-5.699 7.417-5.699.652 0 1.315.084 1.976.26 4.088 1.09 6.528 5.303 5.438 9.392zm11.661-14.211c-2.948-4.601-7.552-8.16-13.235-9.675-12.084-3.223-24.529 3.986-27.751 16.068-1.029 3.86-.989 7.756-.069 11.378-10.191-5.971-15.794-18.104-13.111-30.044 1.179-5.247 3.802-9.976 7.6-13.711l46.271 12.335c1.242 4.45 1.333 9.135.295 13.649z" fill="#000000" data-original="#000000" class=""></path><path d="m353.752 232.888c-1.877-8.353-6.142-15.861-12.332-21.712-3.501-3.308-8.608-4.583-13.326-3.324l-47.154 12.57c-4.718 1.258-8.511 4.902-9.901 9.511-2.284 7.583-2.41 15.646-.365 23.317 3.023 11.34 10.344 20.718 20.612 26.405 6.44 3.567 13.5 5.378 20.644 5.378 4.242 0 8.515-.639 12.701-1.928 21.189-6.524 33.981-28.582 29.121-50.217zm-22.636-10.81c.001 0 .002.001.002.002-.001-.001-.002-.002-.002-.002zm-45.949 27.31c-1.28-4.799-1.251-9.831.078-14.588l46.271-12.335c3.798 3.735 6.421 8.465 7.601 13.712.939 4.179.856 8.38-.077 12.334-3.059-4.808-7.719-8.261-13.258-9.737-12.083-3.223-24.529 3.986-27.751 16.068-1.025 3.846-.989 7.729-.079 11.34-6.351-3.722-10.883-9.656-12.785-16.794zm42.189 13.271c-1.09 4.089-5.299 6.529-9.393 5.439-4.089-1.09-6.528-5.304-5.438-9.392.914-3.429 4.024-5.699 7.417-5.699.652 0 1.315.084 1.976.26 1.98.528 3.638 1.796 4.665 3.57 1.026 1.774 1.301 3.841.773 5.822z" fill="#000000" data-original="#000000" class=""></path><path d="m274.47 213.952c.998 0 2.013-.201 2.986-.624l7.354-3.197c3.799-1.651 5.539-6.07 3.888-9.869s-6.07-5.54-9.868-3.887l-7.354 3.197c-3.799 1.651-5.539 6.07-3.888 9.869 1.229 2.825 3.987 4.511 6.882 4.511z" fill="#000000" data-original="#000000" class=""></path><path d="m224.522 199.572-7.353-3.197c-3.803-1.652-8.218.088-9.869 3.887-1.651 3.798.089 8.217 3.887 9.869l7.353 3.197c.975.423 1.989.624 2.987.624 2.896 0 5.653-1.687 6.882-4.511 1.651-3.798-.089-8.217-3.887-9.869z" fill="#000000" data-original="#000000" class=""></path><path d="m504.882 503.593c-.109-.891-2.805-22.108-14.188-47.487-15.21-33.909-38.852-59.061-68.367-72.736-.95-.44-1.95-.738-2.968-.924-9.376-6.496-19.586-12.485-30.41-17.854 3.526-6.909 6.534-14.286 8.975-22.156 1.228-3.956-.985-8.158-4.941-9.385-3.962-1.229-8.159.986-9.385 4.942-7.755 25.007-21.657 44.52-41.321 57.997-23.109 15.838-54.829 23.869-94.277 23.869-56.213 0-96.354-16.269-119.311-48.355-43.087-60.222-17.392-162.965-1.89-210.452 4.525 1.978 9.45 3.038 14.461 3.038 5.738 0 11.405-1.37 16.479-3.972 5.593 13.286 18.808 22.124 33.299 22.124 7.899 0 15.554-2.588 21.808-7.332 8.232 10.665 20.967 16.968 34.504 16.968 13.785 0 26.776-6.56 34.985-17.606 6.396 5.147 14.391 7.97 22.625 7.97 14.49 0 27.706-8.836 33.3-22.123 5.075 2.603 10.741 3.972 16.479 3.972 5.011 0 9.936-1.06 14.461-3.038 11.123 34.011 25.812 90.861 20.972 142.801-.384 4.124 2.647 7.779 6.771 8.164.237.022.472.033.705.033 3.828 0 7.097-2.917 7.459-6.805.578-6.203.88-12.466.969-18.745 2.674.463 5.393.701 8.142.701 26.18 0 47.479-21.299 47.479-47.479s-21.299-47.479-47.479-47.479c-6.78 0-13.353 1.417-19.408 4.137-4.163-17.3-8.843-32.62-12.894-44.632 6.322-7.208 9.471-16.411 8.872-26.069-.794-12.806-8.26-23.786-18.957-29.538l-13.989-82.662c-1.155-6.831-6.311-12.021-13.133-13.225-6.827-1.204-13.442 1.912-16.864 7.935l-38.211 67.252c-.201.353-.361.718-.499 1.087-2.099 1.024-4.105 2.25-5.984 3.674-3.728-4.821-8.471-8.859-13.831-11.754-3.646-1.969-8.195-.609-10.163 3.034-1.969 3.645-.61 8.195 3.034 10.163 3.956 2.137 7.4 5.221 9.961 8.917 2.104 3.038 5.406 5.042 9.062 5.498 3.581.447 7.186-.648 9.893-3.005 3.839-3.344 8.758-5.186 13.853-5.186 8.929 0 16.93 5.652 19.909 14.064 1.373 3.875 4.359 6.928 8.195 8.378 3.764 1.423 7.934 1.124 11.436-.823 3.494-1.942 7.488-2.839 11.529-2.604 10.448.616 19.14 9.278 19.787 19.722.366 5.913-1.652 11.531-5.685 15.822-4.036 4.294-9.503 6.66-15.394 6.66-3.641 0-7.227-.939-10.371-2.716-3.476-1.963-7.627-2.309-11.39-.944-3.813 1.382-6.823 4.355-8.259 8.157-3.086 8.167-11.026 13.654-19.759 13.654-5.009 0-9.864-1.787-13.672-5.03-3.035-2.586-7.028-3.781-10.946-3.286-3.862.49-7.364 2.601-9.607 5.792-5.355 7.615-14.097 12.161-23.385 12.161-9.37 0-18.157-4.609-23.505-12.331-2.104-3.037-5.408-5.041-9.064-5.497-3.58-.444-7.185.649-9.89 3.006-3.838 3.344-8.758 5.186-13.853 5.186-8.732 0-16.672-5.487-19.758-13.655-1.438-3.803-4.448-6.776-8.261-8.157-3.763-1.363-7.912-1.019-11.39.945-3.143 1.776-6.729 2.715-10.37 2.715-5.891 0-11.357-2.365-15.394-6.66-4.032-4.291-6.051-9.909-5.685-15.822.648-10.443 9.34-19.106 19.787-19.722 4.039-.235 8.035.662 11.53 2.604 3.502 1.946 7.67 2.247 11.436.822 3.835-1.45 6.821-4.504 8.194-8.378 2.979-8.412 10.98-14.063 19.909-14.063 5.01 0 9.865 1.786 13.673 5.031 3.036 2.585 7.022 3.781 10.947 3.285 3.861-.49 7.362-2.601 9.607-5.792 2.188-3.114 4.948-5.731 8.2-7.78 3.504-2.208 4.556-6.839 2.348-10.343-2.208-3.505-6.84-4.556-10.344-2.348-4.616 2.908-8.583 6.578-11.806 10.918-2.06-1.658-4.288-3.071-6.635-4.23l-38.871-68.42c-3.423-6.024-10.043-9.136-16.864-7.936-6.823 1.203-11.978 6.395-13.133 13.225l-13.989 82.663c-10.697 5.752-18.162 16.732-18.957 29.537-.599 9.657 2.549 18.86 8.87 26.067-4.163 12.342-8.805 27.607-12.905 44.628-6.047-2.715-12.61-4.131-19.396-4.131-26.18 0-47.479 21.299-47.479 47.479s21.299 47.479 47.479 47.479c2.744 0 5.456-.243 8.122-.703.426 30.489 6.153 56.627 17.118 78.112-13.385 6.641-25.767 14.196-36.873 22.521-3.314 2.484-3.987 7.185-1.503 10.5 1.474 1.966 3.726 3.002 6.007 3.002 1.565 0 3.144-.488 4.492-1.5 10.64-7.976 22.563-15.212 35.5-21.56.604.895 1.218 1.782 1.844 2.658 25.935 36.248 70.181 54.627 131.511 54.627 42.532 0 77.104-8.915 102.757-26.497 12.156-8.331 22.355-18.645 30.566-30.811 8.377 4.11 16.347 8.614 23.818 13.441-4.008 9.886-15.268 33.332-39.038 55.686-30.529 28.711-70.508 45.655-118.827 50.361-4.122.402-7.139 4.069-6.737 8.192s4.066 7.137 8.192 6.738c51.698-5.036 94.646-23.326 127.648-54.364 24.757-23.282 37.143-47.849 42.043-59.479 7.929 3.902 15.302 8.69 22.106 14.342-8.654 22.683-28.225 59.952-68.993 85.695-3.502 2.211-4.548 6.843-2.337 10.346 1.427 2.259 3.86 3.497 6.349 3.497 1.369 0 2.755-.375 3.998-1.16 41.013-25.899 62.271-62.408 72.664-87.208 9.683 10.605 17.911 23.357 24.614 38.195 10.479 23.194 13.106 43.08 13.171 43.583.466 3.802 3.7 6.589 7.435 6.589.305 0 .612-.019.922-.057 4.113-.503 7.037-4.244 6.534-8.355zm-180.283-459.325 23.956 4.224 1.88 11.107-31.4-5.537zm17.505-29.24c.812.143.908.712.949.955l2.844 16.809-13.433-2.369 8.421-14.822c.123-.214.41-.72 1.219-.573zm-3.564 80.65c-5.023-12.673-16.813-21.403-30.288-22.64l2.915-5.131 41.923 7.393 2.807 16.587c-6.048-.193-11.997 1.1-17.357 3.791zm75.676 111.567c17.909 0 32.479 14.57 32.479 32.479s-14.569 32.479-32.479 32.479c-2.845 0-5.641-.367-8.35-1.085-.211-5.123-.561-10.233-1.017-15.31 4.118 1.639 8.68 2.757 13.494 2.757 4.143 0 7.5-3.358 7.5-7.5s-3.357-7.5-7.5-7.5c-5.12 0-10.229-2.454-13.911-4.771 4.445-2.774 9.384-4.49 14.748-5.092 4.116-.462 7.078-4.174 6.616-8.29-.462-4.117-4.179-7.071-8.29-6.616-6.051.679-11.725 2.353-16.972 4.986-.735-4.16-1.518-8.264-2.348-12.286 4.869-2.777 10.338-4.251 16.03-4.251zm-256.758-111.567c-5.359-2.692-11.309-3.98-17.358-3.791l2.807-16.587 41.924-7.392 2.915 5.131c-13.475 1.236-25.265 9.967-30.288 22.639zm19.507-41.615-31.401 5.537 1.88-11.108 23.956-4.224zm-24.02-38.081c.042-.243.138-.812.948-.954.809-.141 1.096.358 1.218.573l8.422 14.822-13.433 2.368zm-103.643 223.741c0-17.909 14.569-32.479 32.479-32.479 5.696 0 11.153 1.471 16.013 4.241-.831 4.027-1.618 8.126-2.352 12.282-5.236-2.624-10.901-4.295-16.951-4.974-4.106-.46-7.829 2.499-8.29 6.616-.462 4.116 2.5 7.828 6.616 8.29 5.367.603 10.303 2.312 14.743 5.082-3.596 2.251-8.772 4.78-13.906 4.78-4.143 0-7.5 3.358-7.5 7.5s3.357 7.5 7.5 7.5c4.823 0 9.408-1.159 13.481-2.782-.05.556-.104 1.111-.151 1.668-.394 4.64-.678 9.193-.863 13.665-2.704.717-5.495 1.087-8.34 1.087-17.909.003-32.479-14.567-32.479-32.476z" fill="#000000" data-original="#000000" class=""></path></g></g></g></svg>