<svg xmlns="http://www.w3.org/2000/svg" version="1.1" xmlns:xlink="http://www.w3.org/1999/xlink" xmlns:svgjs="http://svgjs.com/svgjs" width="512" height="512" x="0" y="0" viewBox="0 0 511.99998 511.99998" style="enable-background:new 0 0 512 512" xml:space="preserve" class=""><g><path xmlns="http://www.w3.org/2000/svg" d="m138.324219 483.402344c-82.179688-42.609375-138.324219-128.441406-138.324219-227.402344 0-141.382812 114.617188-256 256-256s256 114.617188 256 256c0 98.960938-56.144531 184.792969-138.324219 227.402344zm0 0" fill="#fda2c7" data-original="#fda2c7" class=""></path><path xmlns="http://www.w3.org/2000/svg" d="m256 63.011719c-105.277344 0-190.925781 80.566406-190.925781 179.59375v67.570312c0 57.660157 43.234375 106.238281 100.527343 112.703125 24.128907 2.726563 53.851563 4.472656 90.398438 4.472656s66.269531-1.746093 90.398438-4.472656c57.292968-6.464844 100.527343-55.042968 100.527343-112.703125v-67.566406c0-99.03125-85.648437-179.597656-190.925781-179.597656zm0 0" fill="#494a59" data-original="#494a59" class=""></path><path xmlns="http://www.w3.org/2000/svg" d="m373.675781 483.402344c-35.230469 18.273437-75.253906 28.597656-117.675781 28.597656s-82.445312-10.324219-117.675781-28.597656c0-62.070313 61.941406-95.941406 61.941406-95.941406h111.46875s61.941406 33.871093 61.941406 95.941406zm0 0" fill="#fedd60" data-original="#fedd60"></path><path xmlns="http://www.w3.org/2000/svg" d="m256 427.351562c29.523438 0 58.171875-6.21875 84.121094-17.828124-14.578125-14.507813-28.386719-22.0625-28.386719-22.0625h-111.46875s-13.808594 7.554687-28.386719 22.0625c25.949219 11.609374 54.597656 17.828124 84.121094 17.828124zm0 0" fill="#e6c85c" data-original="#e6c85c" class=""></path><path xmlns="http://www.w3.org/2000/svg" d="m383.226562 230.195312c0-16.625-12.445312-30.539062-28.941406-32.589843-71.804687-8.925781-98.285156-49.257813-98.285156-49.257813s-26.480469 40.332032-98.285156 49.257813c-16.496094 2.050781-28.941406 15.964843-28.941406 32.589843v110.519532c30.296874 34.046875 76.039062 55.734375 127.226562 55.734375s96.929688-21.6875 127.226562-55.734375zm0 0" fill="#ffd9cc" data-original="#ffd9cc" class=""></path><path xmlns="http://www.w3.org/2000/svg" d="m335.449219 262.90625c-4.269531 0-7.726563-3.460938-7.726563-7.726562v-15.449219c0-4.265625 3.457032-7.722657 7.726563-7.722657s7.726562 3.457032 7.726562 7.722657v15.449219c0 4.265624-3.460937 7.726562-7.726562 7.726562zm0 0" fill="#3f404d" data-original="#3f404d"></path><path xmlns="http://www.w3.org/2000/svg" d="m345.96875 285.613281h-21.039062c-4.269532 0-7.726563-3.460937-7.726563-7.726562s3.457031-7.726563 7.726563-7.726563h21.039062c4.269531 0 7.726562 3.460938 7.726562 7.726563s-3.457031 7.726562-7.726562 7.726562zm0 0" fill="#ff7f85" data-original="#ff7f85"></path><path xmlns="http://www.w3.org/2000/svg" d="m176.550781 262.90625c-4.269531 0-7.726562-3.460938-7.726562-7.726562v-15.449219c0-4.265625 3.457031-7.722657 7.726562-7.722657s7.726563 3.457032 7.726563 7.722657v15.449219c0 4.265624-3.457032 7.726562-7.726563 7.726562zm0 0" fill="#3f404d" data-original="#3f404d"></path><path xmlns="http://www.w3.org/2000/svg" d="m187.070312 285.613281h-21.039062c-4.269531 0-7.726562-3.460937-7.726562-7.726562s3.457031-7.726563 7.726562-7.726563h21.039062c4.269532 0 7.726563 3.460938 7.726563 7.726563s-3.457031 7.726562-7.726563 7.726562zm0 0" fill="#ff7f85" data-original="#ff7f85"></path><path xmlns="http://www.w3.org/2000/svg" d="m256 284.738281c-7.769531 0-15.070312-3.253906-20.027344-8.925781-2.808594-3.214844-2.480468-8.09375.734375-10.902344 3.210938-2.808594 8.09375-2.480468 10.902344.730469 2.023437 2.320313 5.082031 3.648437 8.390625 3.648437s6.367188-1.332031 8.394531-3.648437c2.804688-3.210937 7.6875-3.539063 10.902344-.730469 3.210937 2.808594 3.539063 7.6875.730469 10.902344-4.960938 5.671875-12.261719 8.925781-20.027344 8.925781zm0 0" fill="#3f404d" data-original="#3f404d"></path><g xmlns="http://www.w3.org/2000/svg" fill="#ffd9cc"><path d="m91.859375 222.175781c-20.386719 0-36.914063 16.527344-36.914063 36.914063 0 20.386718 16.527344 36.914062 36.914063 36.914062zm0 0" fill="#ffd9cc" data-original="#ffd9cc" class=""></path><path d="m420.140625 222.175781c20.386719 0 36.914063 16.527344 36.914063 36.914063 0 20.386718-16.527344 36.914062-36.914063 36.914062zm0 0" fill="#ffd9cc" data-original="#ffd9cc" class=""></path></g></g></svg>