<svg xmlns="http://www.w3.org/2000/svg" version="1.1" xmlns:xlink="http://www.w3.org/1999/xlink" xmlns:svgjs="http://svgjs.com/svgjs" width="512" height="512" x="0" y="0" viewBox="0 0 512 512" style="enable-background:new 0 0 512 512" xml:space="preserve" class=""><g><g xmlns="http://www.w3.org/2000/svg"><path d="m175.456 378.031c9.879-31.359-16.113-62.37-51.757-62.37-29.737 0-53.843 21.893-53.843 48.899 0 14.209 6.679 26.996 17.336 35.928 2.786 2.335 4.12 5.967 3.49 9.547-5.146 29.242 19.785 56.491 53.197 56.491 29.737 0 53.843-21.893 53.843-48.899.001-16.289-8.778-30.709-22.266-39.596z" fill="#d2996f" data-original="#d2996f"></path><ellipse cx="93.185" cy="302.394" fill="#ffbf9e" rx="41.365" ry="37.043" data-original="#ffbf9e"></ellipse><ellipse cx="418.815" cy="302.394" fill="#ffbf9e" rx="41.365" ry="37.043" data-original="#ffbf9e"></ellipse><path d="m343.334 504.5c8.734 0 15.349-7.834 13.959-16.456-7.874-48.845-50.227-86.15-101.294-86.15-51.066 0-93.419 37.305-101.293 86.15-1.39 8.622 5.225 16.456 13.959 16.456z" fill="#6171a3" data-original="#6171a3"></path><path d="m304.302 387.549 15.797 58.476-44.875 58.475h-38.448l-44.875-58.475 15.797-58.476z" fill="#f2bcd5" data-original="#f2bcd5"></path><path d="m192.428 444.073c19.65 5.156 40.981 7.91 63.572 7.91 22.592 0 43.923-2.753 63.572-7.91l-15.27-56.524h-96.605z" fill="#ea9cd0" data-original="#ea9cd0"></path><path d="m207.698 387.549s26.435 83.025 29.078 116.951h-28.065s-21.927-42.103-49.398-64.975c-5.678-4.727-6.146-13.285-1.085-18.667 9.729-10.349 26.73-25.311 49.47-33.309z" fill="#efedff" data-original="#efedff"></path><path d="m304.302 387.549s-26.434 83.025-29.078 116.951h28.065s21.927-42.103 49.398-64.975c5.678-4.727 6.146-13.285 1.085-18.667-9.729-10.349-26.73-25.311-49.47-33.309z" fill="#efedff" data-original="#efedff"></path><path d="m357.258 430.292c.154-3.357-.991-6.781-3.486-9.434-9.729-10.349-26.73-25.311-49.47-33.309 0 0-9.845 30.923-18.12 62.736 26.127-2.993 50.075-9.872 71.076-19.993z" fill="#d4d4ff" data-original="#d4d4ff" class=""></path><path d="m207.698 387.549c-22.74 7.998-39.741 22.96-49.47 33.309-2.495 2.653-3.639 6.078-3.486 9.434 21.002 10.121 44.95 17 71.076 19.993-8.275-31.813-18.12-62.736-18.12-62.736z" fill="#d4d4ff" data-original="#d4d4ff" class=""></path><path d="m417.307 293.767c0 78.492-72.219 127.823-161.307 127.823-89.087 0-161.307-49.331-161.307-127.823s72.219-142.123 161.307-142.123c89.087 0 161.307 63.631 161.307 142.123z" fill="#ffd4be" data-original="#ffd4be" class=""></path><path d="m394.92 178.583c-17.384-41.427-19.893-98.446-17.636-149.835.303-6.905-4.593-12.946-11.41-14.088-22.156-3.71-60.861-7.16-109.874-7.16s-87.718 3.45-109.873 7.16c-6.817 1.142-11.713 7.183-11.41 14.088 2.257 51.389-.253 108.408-17.636 149.835z" fill="#6171a3" data-original="#6171a3"></path><path d="m378.717 107.148c-34.054 7.187-75.081 12.425-122.717 12.425s-88.663-5.238-122.717-12.425c-2.51 25.948-7.483 50.655-16.203 71.435h277.84c-8.72-20.78-13.692-45.486-16.203-71.435z" fill="#de5c6e" data-original="#de5c6e"></path><path d="m132.246 165.13c-24.061 13.686-60.238 66.118-54.438 112.392 1.914 15.271 18.125 24.19 32.084 17.706 30.749-14.282 70.039-54.831 74.621-103.561z" fill="#d2996f" data-original="#d2996f"></path><path d="m379.754 165.13c24.061 13.686 60.238 66.118 54.438 112.392-1.914 15.271-18.125 24.19-32.084 17.706-30.749-14.282-70.039-54.831-74.621-103.561z" fill="#d2996f" data-original="#d2996f"></path><path d="m256 214.32c-58.739 0-114.476-8.447-165.664-25.106-13.302-4.329-20.575-18.621-16.246-31.922 4.328-13.301 18.622-20.575 31.921-16.246 46.118 15.009 96.582 22.619 149.988 22.619 53.407 0 103.87-7.61 149.989-22.619 13.299-4.329 27.593 2.945 31.921 16.246 4.329 13.301-2.944 27.593-16.246 31.922-51.187 16.659-106.923 25.106-165.663 25.106z" fill="#6171a3" data-original="#6171a3"></path><path d="m462.375 459.712-4.944 10.187c-3.05 6.284-12.003 6.284-15.052 0l-4.944-10.187c-2.507-5.167-6.68-9.34-11.847-11.847l-10.187-4.944c-6.284-3.05-6.284-12.003 0-15.053l10.187-4.944c5.167-2.508 9.34-6.68 11.847-11.847l4.944-10.187c3.05-6.284 12.003-6.284 15.052 0l4.944 10.187c2.508 5.167 6.68 9.34 11.847 11.847l10.187 4.944c6.284 3.05 6.284 12.003 0 15.053l-10.187 4.944c-5.166 2.508-9.339 6.681-11.847 11.847z" fill="#f2bcd5" data-original="#f2bcd5"></path><path d="m49.625 86.75 4.944 10.187c3.05 6.284 12.003 6.284 15.053 0l4.944-10.187c2.507-5.167 6.68-9.34 11.847-11.847l10.187-4.944c6.284-3.05 6.284-12.003 0-15.052l-10.187-4.944c-5.167-2.507-9.34-6.68-11.847-11.847l-4.944-10.187c-3.05-6.284-12.003-6.284-15.053 0l-4.944 10.187c-2.507 5.167-6.68 9.34-11.847 11.847l-10.187 4.944c-6.284 3.05-6.284 12.003 0 15.052l10.187 4.944c5.166 2.507 9.339 6.68 11.847 11.847z" fill="#f2bcd5" data-original="#f2bcd5"></path><g><g fill="#eda1ab"><ellipse cx="177.623" cy="316.408" rx="28.92" ry="23.03" fill="#eda1ab" data-original="#eda1ab"></ellipse><ellipse cx="334.377" cy="316.408" rx="28.92" ry="23.03" fill="#eda1ab" data-original="#eda1ab"></ellipse></g></g><path d="m76.368 100.211 4.943-10.187c1.765-3.636 4.739-6.61 8.375-8.374l10.187-4.944c11.899-5.775 11.932-22.757 0-28.548l-10.187-4.944c-3.636-1.764-6.61-4.738-8.375-8.374l-4.943-10.187c-5.775-11.899-22.756-11.933-28.547 0l-4.943 10.187c-1.765 3.636-4.739 6.61-8.375 8.375l-10.186 4.944c-11.899 5.775-11.932 22.757 0 28.548l10.186 4.944c3.636 1.764 6.61 4.738 8.375 8.374l4.943 10.187c5.775 11.898 22.756 11.932 28.547-.001zm-35.316-32.056-10.187-4.944c-.158-.077-.487-.236-.487-.779s.329-.702.487-.779l10.187-4.944c6.651-3.228 12.092-8.668 15.32-15.32l4.943-10.186c.077-.158.237-.488.779-.488s.702.33.779.488l4.943 10.187c3.229 6.651 8.669 12.092 15.32 15.32l10.187 4.944c.158.077.487.236.487.779s-.329.702-.487.779l-10.187 4.944c-6.651 3.228-12.092 8.668-15.32 15.32l-4.943 10.187c-.077.158-.237.488-.779.488s-.702-.33-.779-.488l-4.943-10.187c-3.228-6.653-8.669-12.093-15.32-15.321zm276.471 201.927c-11.726 0-21.265 9.539-21.265 21.265 0 4.142 3.357 7.5 7.5 7.5s7.5-3.358 7.5-7.5c0-3.455 2.811-6.265 6.265-6.265s6.265 2.81 6.265 6.265c0 4.142 3.357 7.5 7.5 7.5s7.5-3.358 7.5-7.5c-.001-11.726-9.54-21.265-21.265-21.265zm150.158 32.313c0-16.513-9.857-31.4-25.504-39.136-.969-21.095-8.743-44.359-22.08-65.693 1.295-.409 2.599-.8 3.888-1.22 17.252-5.615 26.673-24.121 21.057-41.375-5.613-17.25-24.122-26.673-41.375-21.057-4.271 1.39-8.592 2.694-12.939 3.955-5.823-29.42-7.834-65.95-5.952-108.792.468-10.671-7.127-20.049-17.664-21.813-2.622-.439-5.452-.871-8.414-1.285-4.096-.57-7.892 2.289-8.464 6.392-.573 4.103 2.289 7.892 6.392 8.465 2.826.394 5.521.806 8.009 1.222 3.075.515 5.292 3.25 5.155 6.362-1.167 26.592-.861 50.886.895 72.712-73.599 14.585-155.608 14.618-229.37.001 1.756-21.827 2.063-46.121.895-72.713-.138-3.111 2.079-5.846 5.154-6.361 26.391-4.421 67.002-7.059 108.636-7.059 22.992 0 45.008.753 65.435 2.239 4.148.297 7.724-2.806 8.024-6.937s-2.806-7.724-6.936-8.024c-20.788-1.511-43.169-2.278-66.523-2.278-42.414 0-83.952 2.715-111.113 7.263-10.538 1.765-18.132 11.143-17.663 21.814 1.882 42.838-.128 79.37-5.95 108.792-4.347-1.261-8.669-2.565-12.94-3.955-17.247-5.612-35.759 3.798-41.375 21.057-5.615 17.252 3.802 35.759 21.057 41.376 1.29.42 2.595.811 3.891 1.221-13.337 21.334-21.119 44.598-22.087 65.694-33.049 16.344-34.314 59.537-1.673 77.367-11.428 22.366-5.556 49.026 14.228 65.609.732.613 1.085 1.57.921 2.5-2.392 13.593.741 27.498 8.82 39.155 2.352 3.395 7.025 4.257 10.437 1.892 3.404-2.359 4.251-7.032 1.892-10.436-5.813-8.387-8.077-18.335-6.376-28.009 1.092-6.191-1.23-12.551-6.058-16.597-15.865-13.298-18.485-33.391-9.637-48.916 5.517 1.141 10.92 1.388 16.431.81 12.952 27.207 35.654 47.616 62.073 61.092-2.801 2.561-5.514 5.228-8.113 7.992-7.999 8.508-7.254 22.073 1.75 29.568 1.904 1.585 3.781 3.275 5.629 5.041-1.331 2.344-2.574 4.726-3.722 7.145-9.137 2.3-18.687 1.989-27.232-.558-3.976-1.185-8.147 1.077-9.329 5.047-1.183 3.97 1.076 8.147 5.046 9.329 8.376 2.494 17.094 3.225 25.353 2.427-1.247 4.293-2.238 8.673-2.956 13.131-2.126 13.177 8.012 25.149 21.361 25.149h174.669c13.349 0 23.49-11.973 21.363-25.149-2.08-12.908-6.394-25.164-12.838-36.517 1.847-1.765 3.723-3.459 5.627-5.045 8.989-7.484 9.76-21.048 1.75-29.569-2.601-2.766-5.319-5.429-8.125-7.987 26.363-13.445 49.106-33.836 62.084-61.098 29.4 3.083 54.486-17.996 54.486-44.24zm-26.348-22.04c7.096 5.509 11.347 13.465 11.347 22.039 0 16.231-15.083 29.443-33.663 29.539 3.031-9.509 4.875-19.515 5.516-29.938 8.882-4.19 15.003-12.1 16.8-21.64zm-301.495-164.226c72.765 14.219 155.697 14.974 232.324 0 1.07 9.056 2.424 17.617 4.052 25.686-75.85 19.154-164.495 19.174-240.427 0 1.627-8.069 2.981-16.63 4.051-25.686zm-58.616 43.484c3.049-9.369 13.099-14.484 22.469-11.435 94.369 30.713 210.26 30.71 304.62-.001 9.365-3.049 19.418 2.065 22.468 11.436 3.049 9.369-2.065 19.42-11.436 22.469-101.537 33.044-225.14 33.047-326.686 0-9.37-3.049-14.485-13.098-11.435-22.469zm-21.903 142.782c0-8.573 4.257-16.525 11.348-22.039 1.797 9.537 7.916 17.448 16.799 21.64.641 10.423 2.485 20.428 5.517 29.938-18.581-.096-33.664-13.308-33.664-29.539zm25.93-25.805c-2.804-22.379 5.239-49.913 21.607-74.542 20.869 5.868 42.423 10.431 64.557 13.693-12.141 33.661-40.81 61.598-64.681 72.686-9.375 4.355-20.2-1.616-21.483-11.837zm83.416 220.41c-4.097 0-7.212-3.677-6.555-7.762 1.544-9.577 4.518-18.739 8.859-27.353 10.515 12.359 19.313 25.922 24.835 35.115zm44.506 0c-6.328-11.342-25.522-43.642-49.059-63.239-2.34-1.948-2.541-5.508-.42-7.766 3.835-4.078 7.942-7.916 12.232-11.474 11.049 4.389 22.819 7.834 35.126 10.265 6.778 23.645 14.461 52.753 17.31 72.214zm30.324 0c-2.521-18.684-9.498-46.062-16.118-69.623 18.826 2.284 38.42 2.284 57.247 0-6.621 23.561-13.597 50.939-16.117 69.622h-25.012zm40.153 0c2.846-19.458 10.523-48.562 17.303-72.214 12.307-2.431 24.077-5.877 35.126-10.266 4.29 3.558 8.397 7.396 12.232 11.474 2.118 2.255 1.924 5.815-.42 7.767-23.538 19.597-42.732 51.897-49.059 63.239zm59.686 0h-27.144c5.516-9.188 14.304-22.742 24.825-35.104 4.34 8.612 7.331 17.767 8.874 27.342.658 4.079-2.45 7.762-6.555 7.762zm21.161-115.091c-27.916 20.752-66.447 32.181-108.495 32.181s-80.579-11.429-108.495-32.181c-26.49-19.692-41.847-46.232-44.777-77.134 3.508-.292 6.995-1.198 10.323-2.744 26.677-12.391 60.159-43.684 73.538-84.277 45.526 5.419 93.222 5.428 138.822 0 13.379 40.593 46.861 71.886 73.538 84.277 3.328 1.546 6.812 2.451 10.319 2.743-2.93 30.902-18.284 57.443-44.773 77.135zm40.773-93.483c-23.871-11.088-52.54-39.025-64.681-72.686 22.134-3.262 43.688-7.825 64.557-13.693 16.369 24.629 24.412 52.163 21.607 74.542-1.282 10.22-12.107 16.193-21.483 11.837zm-210.79-18.344c-11.726 0-21.265 9.539-21.265 21.265 0 4.142 3.357 7.5 7.5 7.5s7.5-3.358 7.5-7.5c0-3.455 2.811-6.265 6.265-6.265s6.265 2.81 6.265 6.265c0 4.142 3.357 7.5 7.5 7.5s7.5-3.358 7.5-7.5c-.001-11.726-9.54-21.265-21.265-21.265zm293.206 151.04-10.186-4.944c-3.636-1.764-6.61-4.738-8.375-8.374l-4.943-10.187c-5.775-11.899-22.756-11.933-28.547 0l-4.943 10.186c-1.765 3.636-4.739 6.61-8.375 8.374l-10.186 4.944c-11.899 5.775-11.932 22.757 0 28.547l10.186 4.944c3.636 1.764 6.61 4.738 8.375 8.374l4.943 10.187c5.775 11.9 22.757 11.932 28.547 0l4.943-10.187c1.765-3.636 4.739-6.61 8.375-8.374l10.186-4.944c11.899-5.774 11.931-22.756 0-28.546zm-6.549 15.052-10.187 4.944c-6.651 3.228-12.092 8.668-15.32 15.32l-4.943 10.187c-.077.158-.237.487-.779.487s-.702-.329-.779-.487l-4.943-10.188c-3.228-6.651-8.669-12.092-15.32-15.32l-10.186-4.944c-.158-.077-.487-.236-.487-.778 0-.543.329-.702.487-.779l10.186-4.944c6.651-3.228 12.092-8.668 15.32-15.32l4.943-10.187c.077-.158.237-.488.779-.488s.702.33.779.488l4.943 10.187c3.228 6.651 8.669 12.092 15.32 15.32l10.187 4.944c.158.077.487.236.487.779s-.329.702-.487.779zm-205.606-134.392c-3.123-2.723-7.86-2.397-10.581.726-2.261 2.593-5.521 4.08-8.948 4.08s-6.688-1.487-8.948-4.08c-2.72-3.122-7.459-3.446-10.581-.726-3.123 2.722-3.447 7.46-.726 10.582 5.109 5.862 12.492 9.224 20.255 9.224s15.145-3.362 20.255-9.224c2.722-3.123 2.397-7.861-.726-10.582z" fill="#000000" data-original="#000000" class=""></path></g></g></svg>